# xmcd
#
# Track frame offsets: 
#        150
#        17957
#        33723
#        50988
#        69031
#        86904
#        106804
#        120256
#        138930
#        155264
#
# Disc length: 2275 seconds
#
# Revision: 0
# Processed by: cddbd v1.5.2PL0 Copyright (c) Steve Scherf et al.
# Submitted via: ExactAudioCopy v1.3
#
DISCID=7f08e10a
DTITLE=Grace Pettis - A Little Noise
DYEAR=2014
DGENRE=Folk
TTITLE0=Alabama Girl
TTITLE1=A Little Noise
TTITLE2=Any Kind Of Girl
TTITLE3=Working Woman
TTITLE4=Happy Place
TTITLE5=Drop Another Pin
TTITLE6=Along the Way
TTITLE7=As Good as It Gets
TTITLE8=Landon
TTITLE9=Glorious Place
EXTD=
EXTT0=
EXTT1=
EXTT2=
EXTT3=
EXTT4=
EXTT5=
EXTT6=
EXTT7=
EXTT8=
EXTT9=
PLAYORDER=
